REM DIRINDEX 1\2,1\3,1\4,1\5
REM DIRNAME folder01,folder02,folder03,folder04,folder05
TITLE ""
FILE "1Q_t_1197-1206.mp3" MP3
  TRACK 01 AUDIO
    TITLE "3:cjc004_4496"
    INDEX 01 00:00:00
  TRACK 02 AUDIO
    TITLE "0:"
    INDEX 01 00:01:24
  TRACK 03 AUDIO
    TITLE "4:cjc004_4497"
    INDEX 01 00:01:50
  TRACK 04 AUDIO
    TITLE "0:"
    INDEX 01 00:03:10
  TRACK 05 AUDIO
    TITLE "5:cjc004_4498"
    INDEX 01 00:03:37
  TRACK 06 AUDIO
    TITLE "0:"
    INDEX 01 00:08:13
  TRACK 07 AUDIO
    TITLE "3:cjc004_4499"
    INDEX 01 00:08:72
  TRACK 08 AUDIO
    TITLE "0:"
    INDEX 01 00:10:19
  TRACK 09 AUDIO
    TITLE "4:cjc004_4500"
    INDEX 01 00:10:47
  TRACK 10 AUDIO
    TITLE "0:"
    INDEX 01 00:11:68
  TRACK 11 AUDIO
    TITLE "5:cjc004_4501"
    INDEX 01 00:12:18
  TRACK 12 AUDIO
    TITLE "0:"
    INDEX 01 00:16:48
  TRACK 13 AUDIO
    TITLE "3:cjc004_4502"
    INDEX 01 00:17:25
  TRACK 14 AUDIO
    TITLE "0:"
    INDEX 01 00:18:35
  TRACK 15 AUDIO
    TITLE "4:cjc004_4503"
    INDEX 01 00:18:60
  TRACK 16 AUDIO
    TITLE "0:"
    INDEX 01 00:19:73
  TRACK 17 AUDIO
    TITLE "5:cjc004_4504"
    INDEX 01 00:20:30
  TRACK 18 AUDIO
    TITLE "0:"
    INDEX 01 00:25:48
  TRACK 19 AUDIO
    TITLE "3:cjc004_4505"
    INDEX 01 00:26:28
  TRACK 20 AUDIO
    TITLE "0:"
    INDEX 01 00:27:53
  TRACK 21 AUDIO
    TITLE "4:cjc004_4506"
    INDEX 01 00:28:06
  TRACK 22 AUDIO
    TITLE "0:"
    INDEX 01 00:29:25
  TRACK 23 AUDIO
    TITLE "5:cjc004_4507"
    INDEX 01 00:29:48
  TRACK 24 AUDIO
    TITLE "0:"
    INDEX 01 00:33:69
  TRACK 25 AUDIO
    TITLE "3:cjc004_4508"
    INDEX 01 00:34:47
  TRACK 26 AUDIO
    TITLE "0:"
    INDEX 01 00:35:70
  TRACK 27 AUDIO
    TITLE "4:cjc004_4509"
    INDEX 01 00:36:23
  TRACK 28 AUDIO
    TITLE "0:"
    INDEX 01 00:37:40
  TRACK 29 AUDIO
    TITLE "5:cjc004_4510"
    INDEX 01 00:37:65
  TRACK 30 AUDIO
    TITLE "0:"
    INDEX 01 00:42:70
  TRACK 31 AUDIO
    TITLE "3:cjc004_4511"
    INDEX 01 00:43:52
  TRACK 32 AUDIO
    TITLE "0:"
    INDEX 01 00:44:67
  TRACK 33 AUDIO
    TITLE "4:cjc004_4512"
    INDEX 01 00:45:20
  TRACK 34 AUDIO
    TITLE "0:"
    INDEX 01 00:46:29
  TRACK 35 AUDIO
    TITLE "5:cjc004_4513"
    INDEX 01 00:46:53
  TRACK 36 AUDIO
    TITLE "0:"
    INDEX 01 00:52:10
  TRACK 37 AUDIO
    TITLE "3:cjc004_4514"
    INDEX 01 00:52:73
  TRACK 38 AUDIO
    TITLE "0:"
    INDEX 01 00:53:74
  TRACK 39 AUDIO
    TITLE "4:cjc004_4515"
    INDEX 01 00:54:23
  TRACK 40 AUDIO
    TITLE "0:"
    INDEX 01 00:55:22
  TRACK 41 AUDIO
    TITLE "5:cjc004_4516"
    INDEX 01 00:55:51
  TRACK 42 AUDIO
    TITLE "0:"
    INDEX 01 01:00:64
  TRACK 43 AUDIO
    TITLE "3:cjc004_4517"
    INDEX 01 01:01:40
  TRACK 44 AUDIO
    TITLE "0:"
    INDEX 01 01:02:61
  TRACK 45 AUDIO
    TITLE "4:cjc004_4518"
    INDEX 01 01:03:16
  TRACK 46 AUDIO
    TITLE "0:"
    INDEX 01 01:04:37
  TRACK 47 AUDIO
    TITLE "5:cjc004_4519"
    INDEX 01 01:04:66
  TRACK 48 AUDIO
    TITLE "0:"
    INDEX 01 01:10:10
  TRACK 49 AUDIO
    TITLE "3:cjc004_4520"
    INDEX 01 01:10:61
  TRACK 50 AUDIO
    TITLE "0:"
    INDEX 01 01:12:01
  TRACK 51 AUDIO
    TITLE "4:cjc004_4521"
    INDEX 01 01:12:32
  TRACK 52 AUDIO
    TITLE "0:"
    INDEX 01 01:14:14
  TRACK 53 AUDIO
    TITLE "5:cjc004_4522"
    INDEX 01 01:14:31
  TRACK 54 AUDIO
    TITLE "0:"
    INDEX 01 01:18:25
  TRACK 55 AUDIO
    TITLE "3:cjc004_4523"
    INDEX 01 01:19:05
  TRACK 56 AUDIO
    TITLE "0:"
    INDEX 01 01:20:22
  TRACK 57 AUDIO
    TITLE "4:cjc004_4524"
    INDEX 01 01:20:51
  TRACK 58 AUDIO
    TITLE "0:"
    INDEX 01 01:22:05
  TRACK 59 AUDIO
    TITLE "5:cjc004_4525"
    INDEX 01 01:22:31
  TRACK 60 AUDIO
    TITLE "0:"
    INDEX 01 01:26:58
